<?xml version="1.0" encoding="UTF-8"?>
<svg id="Ebene_1" data-name="Ebene 1" xmlns="http://www.w3.org/2000/svg" viewBox="0 0 1920 1080">
  <defs>
    <style>
      .cls-1 {
        fill: #fefefe;
      }

      .cls-2 {
        fill: #040404;
      }

      .cls-3 {
        fill: #fdfdfd;
      }
    </style>
  </defs>
  <path class="cls-1" d="M984,516v48h-48v-48h48ZM958.78,544.12c7.45-.19,16.53,1.47,20.92-6.12,2.81-4.85,1.94-10.18,2.02-15.56-.5-2.09-3.11-2.98-4.71-1.48-.27.26-.49.81-.76,1.02-.65.49-3.59,1.32-4.51,1.58-7.73,2.14-17.11,2.64-25.1,2.09-.55-.04-1.89-.07-2.33-.2-.12-.04-.53-.62-.72-.78-1.97-1.68-5.09-.42-5.34,2.16-.11,1.09-.08,3.12.28,4.13.97,2.69,3.99,2.8,5.08,4.95.7,1.38.47,2.85,1.06,4.28.87,2.09,3.3,3.94,5.62,3.94h3.14v5.34s-.44.22-.61.37c-.79.71-1.39,1.5-1.68,2.53s-.42,5.02-.12,6.02c.27.9.98,1.32,1.89,1.39,2.17.17,4.56-.13,6.75-.01.9-.18,1.57-.89,1.65-1.82.11-1.23.12-4.23-.16-5.38-.3-1.24-1.19-2.56-2.37-3.11v-5.34Z"/>
  <path class="cls-2" d="M958.78,544.12v5.34c1.18.55,2.07,1.87,2.37,3.11.28,1.14.27,4.15.16,5.38-.08.93-.75,1.63-1.65,1.82-2.19-.11-4.58.18-6.75.01-.91-.07-1.62-.49-1.89-1.39-.3-1-.18-4.96.12-6.02s.89-1.83,1.68-2.53c.17-.16.61-.34.61-.37v-5.34h-3.14c-2.32,0-4.75-1.85-5.62-3.94-.6-1.43-.36-2.9-1.06-4.28-1.1-2.15-4.11-2.26-5.08-4.95-.36-1.01-.39-3.04-.28-4.13.26-2.58,3.37-3.84,5.34-2.16.19.17.6.75.72.78.44.13,1.78.17,2.33.2,7.98.55,17.37.05,25.1-2.09.92-.26,3.86-1.09,4.51-1.58.27-.2.49-.76.76-1.02,1.6-1.51,4.21-.62,4.71,1.48-.08,5.37.78,10.7-2.02,15.56-4.39,7.6-13.47,5.94-20.92,6.12ZM958.78,542.53c6.91-.31,15.73,1.76,19.74-5.53,2.4-4.37,1.63-9.38,1.71-14.18-.36-1.52-2.38-1.41-2.59.17-.36,2.62.3,5.55-.22,8.31-.88,4.64-3.84,7.74-8.58,8.39-3.28.45-6.74.11-10.05.22v2.62ZM944.72,527.06v1.45c0,1.24,1.97,2.04,2.76,2.67,2.41,1.92,1.33,4.91,3.29,6.46.98.78,1.76.64,2.9.65,4.42.07,9.62.29,13.98,0,2.78-.18,5.45-1.33,6.93-3.76,2.04-3.34,1.5-7.03,1.55-10.77-3.48,1.25-7.08,2.15-10.75,2.7-5.69.85-11.68,1.03-17.43.77-1.07-.05-2.15-.23-3.23-.19ZM953.44,539.91c-2.62.01-4.55-1.18-5.32-3.73-.22-.73-.26-1.52-.49-2.23-.71-2.12-2.83-2.08-3.87-3.82-.76-1.27-.38-1.93-.55-3.2-.27-1.98-3.22-2.02-3.46.09-.07.63-.06,2.08.01,2.71.26,2.25,2.69,2.71,4.07,4,2.39,2.23,1.23,5.02,3.05,7.17.5.59,2.1,1.64,2.86,1.64h3.7v-2.62ZM957.28,539.91h-2.25v12.7c0,.11.45.58.59.63.48.2,1.01.1,1.34-.3.09-.11.32-.52.32-.61v-12.42ZM953.53,551.34c-.22-.06-.16.05-.21.12-.36.41-.64.94-.77,1.47-.23.93-.25,3.75-.14,4.74.06.49.25.57.7.61,1.94.17,4.13-.14,6.1,0,.49-.06.57-.25.61-.7.11-1.26.12-4.16-.36-5.27-.16-.36-.38-.67-.63-.97.08,1.99-.97,3.75-3.18,3.46-.75-.1-2.12-1.13-2.12-1.91v-1.55Z"/>
  <path class="cls-3" d="M944.72,527.06c1.08-.04,2.16.14,3.23.19,5.74.26,11.74.08,17.43-.77,3.67-.55,7.27-1.45,10.75-2.7-.06,3.74.48,7.43-1.55,10.77-1.48,2.43-4.15,3.58-6.93,3.76-4.36.28-9.56.06-13.98,0-1.14-.02-1.92.13-2.9-.65-1.95-1.55-.87-4.54-3.29-6.46-.8-.64-2.76-1.43-2.76-2.67v-1.45Z"/>
  <path class="cls-3" d="M958.78,542.53v-2.62c3.31-.11,6.77.23,10.05-.22,4.74-.65,7.7-3.75,8.58-8.39.52-2.75-.13-5.69.22-8.31.22-1.58,2.23-1.7,2.59-.17-.08,4.8.69,9.81-1.71,14.18-4,7.29-12.83,5.22-19.74,5.53Z"/>
  <path class="cls-3" d="M953.44,539.91v2.62h-3.7c-.76,0-2.35-1.05-2.86-1.64-1.83-2.15-.66-4.94-3.05-7.17-1.38-1.28-3.8-1.74-4.07-4-.07-.63-.08-2.08-.01-2.71.24-2.11,3.19-2.06,3.46-.09.17,1.27-.21,1.92.55,3.2,1.04,1.74,3.16,1.71,3.87,3.82.24.7.27,1.5.49,2.23.77,2.55,2.7,3.74,5.32,3.73Z"/>
  <path class="cls-3" d="M953.53,551.34v1.55c0,.79,1.37,1.81,2.12,1.91,2.21.29,3.26-1.47,3.18-3.46.25.3.47.61.63.97.48,1.11.48,4.01.36,5.27-.04.45-.13.64-.61.7-1.97-.14-4.16.18-6.1,0-.45-.04-.64-.13-.7-.61-.11-.99-.09-3.81.14-4.74.13-.53.42-1.06.77-1.47.06-.07,0-.18.21-.12Z"/>
  <path class="cls-3" d="M957.28,539.91v12.42c0,.1-.24.51-.32.61-.33.4-.85.5-1.34.3-.14-.06-.59-.52-.59-.63v-12.7h2.25Z"/>
</svg>